<svg width="24" height="24" viewBox="0 0 24 24" fill="none" xmlns="http://www.w3.org/2000/svg">
<path d="M0 12C0 18.6274 5.37258 24 12 24C18.6274 24 24 18.6274 24 12C24 5.37258 18.6274 0 12 0C5.37258 0 0 5.37258 0 12Z" fill="#F00073"/>
<path d="M11.9999 6.9C13.6499 6.9 13.8749 6.9 14.5499 6.9C15.1499 6.9 15.4499 7.05 15.6749 7.125C15.9749 7.275 16.1999 7.35 16.4249 7.575C16.6499 7.8 16.7999 8.025 16.8749 8.325C16.9499 8.55 17.0249 8.85 17.0999 9.45C17.0999 10.125 17.0999 10.275 17.0999 12C17.0999 13.725 17.0999 13.875 17.0999 14.55C17.0999 15.15 16.9499 15.45 16.8749 15.675C16.7249 15.975 16.6499 16.2 16.4249 16.425C16.1999 16.65 15.9749 16.8 15.6749 16.875C15.4499 16.95 15.1499 17.025 14.5499 17.1C13.8749 17.1 13.7249 17.1 11.9999 17.1C10.2749 17.1 10.1249 17.1 9.4499 17.1C8.8499 17.1 8.5499 16.95 8.3249 16.875C8.0249 16.725 7.7999 16.65 7.5749 16.425C7.3499 16.2 7.1999 15.975 7.1249 15.675C7.0499 15.45 6.9749 15.15 6.8999 14.55C6.8999 13.875 6.8999 13.725 6.8999 12C6.8999 10.275 6.8999 10.125 6.8999 9.45C6.8999 8.85 7.0499 8.55 7.1249 8.325C7.2749 8.025 7.3499 7.8 7.5749 7.575C7.7999 7.35 8.0249 7.2 8.3249 7.125C8.5499 7.05 8.8499 6.975 9.4499 6.9C10.1249 6.9 10.3499 6.9 11.9999 6.9ZM11.9999 5.775C10.2749 5.775 10.1249 5.775 9.4499 5.775C8.7749 5.775 8.3249 5.925 7.9499 6.075C7.5749 6.225 7.1999 6.45 6.8249 6.825C6.4499 7.2 6.2999 7.5 6.0749 7.95C5.9249 8.325 5.8499 8.775 5.7749 9.45C5.7749 10.125 5.7749 10.35 5.7749 12C5.7749 13.725 5.7749 13.875 5.7749 14.55C5.7749 15.225 5.9249 15.675 6.0749 16.05C6.2249 16.425 6.4499 16.8 6.8249 17.175C7.1999 17.55 7.4999 17.7 7.9499 17.925C8.3249 18.075 8.7749 18.15 9.4499 18.225C10.1249 18.225 10.3499 18.225 11.9999 18.225C13.6499 18.225 13.8749 18.225 14.5499 18.225C15.2249 18.225 15.6749 18.075 16.0499 17.925C16.4249 17.775 16.7999 17.55 17.1749 17.175C17.5499 16.8 17.6999 16.5 17.9249 16.05C18.0749 15.675 18.1499 15.225 18.2249 14.55C18.2249 13.875 18.2249 13.65 18.2249 12C18.2249 10.35 18.2249 10.125 18.2249 9.45C18.2249 8.775 18.0749 8.325 17.9249 7.95C17.7749 7.575 17.5499 7.2 17.1749 6.825C16.7999 6.45 16.4999 6.3 16.0499 6.075C15.6749 5.925 15.2249 5.85 14.5499 5.775C13.8749 5.775 13.7249 5.775 11.9999 5.775Z" fill="white"/>
<path d="M11.9999 8.775C10.1999 8.775 8.7749 10.2 8.7749 12C8.7749 13.8 10.1999 15.225 11.9999 15.225C13.7999 15.225 15.2249 13.8 15.2249 12C15.2249 10.2 13.7999 8.775 11.9999 8.775ZM11.9999 14.1C10.8749 14.1 9.8999 13.2 9.8999 12C9.8999 10.875 10.7999 9.9 11.9999 9.9C13.1249 9.9 14.0999 10.8 14.0999 12C14.0999 13.125 13.1249 14.1 11.9999 14.1Z" fill="white"/>
<path d="M15.2999 9.45C15.7141 9.45 16.0499 9.11422 16.0499 8.7C16.0499 8.28579 15.7141 7.95 15.2999 7.95C14.8857 7.95 14.5499 8.28579 14.5499 8.7C14.5499 9.11422 14.8857 9.45 15.2999 9.45Z" fill="white"/>
</svg>
